<svg width="20" height="20" viewBox="0 0 20 20" fill="none" xmlns="http://www.w3.org/2000/svg">
<g clip-path="url(#clip0_16171_146428)">
<path d="M3.33203 7.5C4.71274 7.5 5.83203 6.38071 5.83203 5C5.83203 3.61929 4.71274 2.5 3.33203 2.5C1.95132 2.5 0.832031 3.61929 0.832031 5C0.832031 6.38071 1.95132 7.5 3.33203 7.5Z" fill="white"/>
<path d="M6.075 9.22498C5.23625 9.74837 4.54449 10.4766 4.06485 11.3411C3.58521 12.2056 3.33347 13.178 3.33333 14.1666H1.66667C1.22504 14.1653 0.801888 13.9893 0.489612 13.677C0.177337 13.3648 0.00131894 12.9416 0 12.5L0 10.8333C0.00197841 10.1709 0.266006 9.53614 0.734419 9.06773C1.20283 8.59932 1.83757 8.33529 2.5 8.33331H4.16667C4.53048 8.33413 4.88972 8.41435 5.21933 8.56835C5.54893 8.72236 5.84095 8.94645 6.075 9.22498Z" fill="white"/>
<path d="M16.668 7.5C18.0487 7.5 19.168 6.38071 19.168 5C19.168 3.61929 18.0487 2.5 16.668 2.5C15.2873 2.5 14.168 3.61929 14.168 5C14.168 6.38071 15.2873 7.5 16.668 7.5Z" fill="white"/>
<path d="M20.0008 10.8333V12.5C19.9995 12.9416 19.8234 13.3648 19.5112 13.677C19.1989 13.9893 18.7757 14.1653 18.3341 14.1666H16.6674C16.6673 13.178 16.4156 12.2056 15.9359 11.3411C15.4563 10.4766 14.7645 9.74837 13.9258 9.22498C14.1598 8.94645 14.4519 8.72236 14.7815 8.56835C15.1111 8.41435 15.4703 8.33413 15.8341 8.33331H17.5008C18.1632 8.33529 18.798 8.59932 19.2664 9.06773C19.7348 9.53614 19.9988 10.1709 20.0008 10.8333Z" fill="white"/>
<path d="M10.0013 9.16667C11.8423 9.16667 13.3346 7.67428 13.3346 5.83333C13.3346 3.99238 11.8423 2.5 10.0013 2.5C8.16035 2.5 6.66797 3.99238 6.66797 5.83333C6.66797 7.67428 8.16035 9.16667 10.0013 9.16667Z" fill="white"/>
<path d="M15 14.1667V15C14.998 15.6624 14.734 16.2972 14.2656 16.7656C13.7972 17.234 13.1624 17.498 12.5 17.5H7.5C6.83757 17.498 6.20283 17.234 5.73442 16.7656C5.26601 16.2972 5.00198 15.6624 5 15V14.1667C5 13.0616 5.43899 12.0018 6.22039 11.2204C7.00179 10.439 8.0616 10 9.16667 10H10.8333C11.9384 10 12.9982 10.439 13.7796 11.2204C14.561 12.0018 15 13.0616 15 14.1667Z" fill="white"/>
</g>
<defs>
<clipPath id="clip0_16171_146428">
<rect width="20" height="20" fill="white"/>
</clipPath>
</defs>
</svg>
