<svg width="24" height="19" viewBox="0 0 24 19" fill="none" xmlns="http://www.w3.org/2000/svg">
<path d="M0.299805 1.96643C0.299805 1.41415 0.747525 0.966431 1.2998 0.966431H22.6331C23.1854 0.966431 23.6331 1.41415 23.6331 1.96643C23.6331 2.51872 23.1854 2.96643 22.6331 2.96643H1.2998C0.747525 2.96643 0.299805 2.51872 0.299805 1.96643Z" fill="#D1B206"/>
<path d="M0.299805 9.96655C0.299805 9.41415 0.747525 8.96655 1.2998 8.96655H22.6331C23.1854 8.96655 23.6331 9.41415 23.6331 9.96655C23.6331 10.5188 23.1854 10.9666 22.6331 10.9666H1.2998C0.747525 10.9666 0.299805 10.5188 0.299805 9.96655Z" fill="#D1B206"/>
<path d="M0.299805 17.9666C0.299805 17.4142 0.747525 16.9666 1.2998 16.9666H22.6331C23.1854 16.9666 23.6331 17.4142 23.6331 17.9666C23.6331 18.5188 23.1854 18.9666 22.6331 18.9666H1.2998C0.747525 18.9666 0.299805 18.5188 0.299805 17.9666Z" fill="#D1B206"/>
</svg>
