<svg width="32" height="32" viewBox="0 0 32 32" fill="none" xmlns="http://www.w3.org/2000/svg">
<g clip-path="url(#clip0_16003_48133)">
<path d="M17 7C11.473 7 7 11.4725 7 17C7 22.5269 11.4725 27 17 27C22.527 27 27 22.5275 27 17C27 11.4731 22.5275 7 17 7ZM18.0269 20.9696C18.0269 21.2855 17.5662 21.6014 17.0002 21.6014C16.4079 21.6014 15.9867 21.2855 15.9867 20.9696V15.9545C15.9867 15.5859 16.4079 15.3357 17.0002 15.3357C17.5662 15.3357 18.0269 15.5859 18.0269 15.9545V20.9696ZM17.0002 14.1248C16.3947 14.1248 15.9209 13.6773 15.9209 13.1771C15.9209 12.6769 16.3948 12.2425 17.0002 12.2425C17.5926 12.2425 18.0665 12.6769 18.0665 13.1771C18.0665 13.6773 17.5925 14.1248 17.0002 14.1248Z" fill="#D1B206"/>
</g>
<defs>
<clipPath id="clip0_16003_48133">
<rect width="20" height="20" fill="white" transform="translate(7 7)"/>
</clipPath>
</defs>
</svg>
