<svg width="19" height="20" viewBox="0 0 19 20" fill="none" xmlns="http://www.w3.org/2000/svg">
<path d="M16.5152 17.2727H1.66655C1.31674 17.2727 0.975795 17.1627 0.692025 16.9581C0.408256 16.7536 0.196047 16.4649 0.0854641 16.133C-0.0251192 15.8012 -0.0284699 15.4429 0.0758866 15.109C0.180243 14.7752 0.387016 14.4826 0.666909 14.2728L1.41555 13.7112C1.69729 13.5007 1.88632 13.189 1.94282 12.8419L2.88209 7.14007C3.11142 5.65747 3.86371 4.30587 5.00292 3.32971C6.14214 2.35355 7.59306 1.81728 9.09329 1.81787C10.5935 1.81846 12.044 2.35589 13.1825 3.33295C14.3209 4.31001 15.0721 5.6622 15.3003 7.14498L16.2389 12.8419C16.2954 13.189 16.4844 13.5007 16.7662 13.7112L17.515 14.2728C17.795 14.4826 18.0018 14.7752 18.1062 15.1091C18.2105 15.443 18.2072 15.8013 18.0965 16.1332C17.9859 16.4651 17.7736 16.7538 17.4898 16.9583C17.2059 17.1629 16.865 17.2729 16.5152 17.2727ZM9.09155 2.7273C7.80635 2.72106 6.56195 3.17818 5.58641 4.01488C4.61086 4.85159 3.96952 6.01183 3.77991 7.28298L2.83995 12.9896C2.74565 13.5681 2.43059 14.0874 1.96109 14.4383L1.21223 15C1.08498 15.0954 0.990974 15.2284 0.943535 15.3802C0.896097 15.532 0.89763 15.6948 0.947918 15.8457C0.998206 15.9966 1.0947 16.1278 1.22372 16.2207C1.35274 16.3137 1.50775 16.3637 1.66677 16.3637H16.5154C16.6744 16.3637 16.8293 16.3137 16.9583 16.2207C17.0873 16.1278 17.1838 15.9966 17.234 15.8458C17.2843 15.6949 17.2859 15.5321 17.2385 15.3804C17.1911 15.2286 17.0971 15.0956 16.97 15.0002L16.2209 14.4383C15.7514 14.0874 15.4363 13.5681 15.342 12.9896L14.4025 7.28784C14.2138 6.016 13.573 4.85479 12.5975 4.01714C11.622 3.17949 10.3773 2.72156 9.09155 2.7273Z" fill="#D1B206"/>
<path d="M10.4545 2.89091C10.334 2.89091 10.2184 2.84302 10.1331 2.75778C10.0479 2.67253 9.99998 2.55692 9.99998 2.43636V1.81818C9.99998 1.57708 9.9042 1.34585 9.73371 1.17536C9.56322 1.00487 9.33199 0.909091 9.09089 0.909091C8.84978 0.909091 8.61855 1.00487 8.44806 1.17536C8.27758 1.34585 8.1818 1.57708 8.1818 1.81818V2.43636C8.1818 2.55692 8.13391 2.67253 8.04866 2.75778C7.96342 2.84302 7.8478 2.89091 7.72725 2.89091C7.6067 2.89091 7.49108 2.84302 7.40584 2.75778C7.32059 2.67253 7.27271 2.55692 7.27271 2.43636V1.81818C7.27271 1.33597 7.46426 0.873508 7.80524 0.532533C8.14621 0.191558 8.60868 0 9.09089 0C9.5731 0 10.0356 0.191558 10.3765 0.532533C10.7175 0.873508 10.9091 1.33597 10.9091 1.81818V2.43636C10.9091 2.55692 10.8612 2.67253 10.7759 2.75778C10.6907 2.84302 10.5751 2.89091 10.4545 2.89091Z" fill="#D1B206"/>
<path d="M9.09088 20C8.24729 19.9991 7.43853 19.6635 6.84203 19.067C6.24552 18.4705 5.91 17.6618 5.90906 16.8182C5.90906 16.6976 5.95695 16.582 6.04219 16.4968C6.12743 16.4115 6.24305 16.3636 6.3636 16.3636C6.48416 16.3636 6.59977 16.4115 6.68502 16.4968C6.77026 16.582 6.81815 16.6976 6.81815 16.8182C6.81815 17.421 7.0576 17.999 7.48382 18.4253C7.91003 18.8515 8.48811 19.0909 9.09088 19.0909C9.69364 19.0909 10.2717 18.8515 10.6979 18.4253C11.1242 17.999 11.3636 17.421 11.3636 16.8182C11.3636 16.6976 11.4115 16.582 11.4967 16.4968C11.582 16.4115 11.6976 16.3636 11.8181 16.3636C11.9387 16.3636 12.0543 16.4115 12.1396 16.4968C12.2248 16.582 12.2727 16.6976 12.2727 16.8182C12.2718 17.6618 11.9362 18.4705 11.3397 19.067C10.7432 19.6635 9.93446 19.9991 9.09088 20Z" fill="#D1B206"/>
</svg>
