<svg width="16" height="17" viewBox="0 0 16 17" fill="none" xmlns="http://www.w3.org/2000/svg">
<path fill-rule="evenodd" clipRule="evenodd" d="M4.75407 6.4212L6.64381 8.31094L2.9883 13.5117L2.98816 13.5118L2.98824 13.5117L2.9882 13.5118L2.9883 13.5117L8.18903 9.85619L10.0788 11.7459C10.274 11.9412 10.5853 11.9351 10.7339 11.7023C11.1158 11.1042 11.6823 9.83226 11.3137 7.89956L13.9573 6.11866C14.4791 5.76719 14.5505 5.02702 14.1057 4.58219L13.0118 3.48824L13.0118 3.48822L11.9178 2.39425C11.473 1.94943 10.7328 2.02092 10.3813 2.54265L8.60044 5.18629C6.66774 4.81762 5.39581 5.38414 4.79766 5.76607C4.56491 5.91468 4.55881 6.22593 4.75407 6.4212Z" fill="#636366"/>
</svg>
