<svg width="13" height="12" viewBox="0 0 13 12" fill="none" xmlns="http://www.w3.org/2000/svg">
<path fill-rule="evenodd" clipRule="evenodd" d="M2.75407 4.4212L4.64381 6.31094L0.988297 11.5117L0.98816 11.5118L0.988241 11.5117L0.988198 11.5118L0.988301 11.5117L6.18903 7.85619L8.07877 9.74593C8.27403 9.94119 8.58528 9.93509 8.73389 9.70234C9.11583 9.10419 9.68234 7.83226 9.31367 5.89956L11.9573 4.11866C12.4791 3.76719 12.5505 3.02702 12.1057 2.58219L11.0118 1.48824L11.0118 1.48822L9.91781 0.394252C9.47298 -0.0505746 8.73281 0.0209155 8.38134 0.542653L6.60044 3.18629C4.66774 2.81762 3.39581 3.38414 2.79766 3.76607C2.56491 3.91468 2.55881 4.22593 2.75407 4.4212Z" fill="#636366"/>
</svg>
