<svg width="18" height="18" viewBox="0 0 18 18" fill="none" xmlns="http://www.w3.org/2000/svg">
<g clipPath="url(#clip0_14098_160210)">
<path d="M14.6471 5.37885H8.15294L6.86118 3.84356C6.81772 3.79132 6.7526 3.76203 6.68471 3.76415H1.44529C0.645353 3.76997 0 4.42009 0 5.22003V14.663C0.000970588 15.4656 0.651441 16.1161 1.45412 16.1171H14.6471C15.4497 16.1161 16.1002 15.4656 16.1012 14.663V6.83297C16.1002 6.03029 15.4497 5.37982 14.6471 5.37885Z" fill="white"/>
<path d="M16.555 3.49769H10.0592L8.76739 1.96239C8.72394 1.91016 8.65882 1.88086 8.59092 1.88298H3.35327C2.62745 1.88417 2.01369 2.42038 1.91504 3.13945H6.6921C6.9426 3.13883 7.18044 3.24939 7.34151 3.44122L8.44445 4.75239H14.6474C15.7947 4.75433 16.7243 5.68394 16.7262 6.83122V14.2218C17.4536 14.1311 17.9998 13.5131 18.0003 12.78V4.95004C17.9984 4.15147 17.3536 3.50351 16.555 3.49769Z" fill="white"/>
</g>
<defs>
<clipPath id="clip0_14098_160210">
<rect width="18" height="18" fill="white"/>
</clipPath>
</defs>
</svg>
