<svg width="24" height="24" viewBox="0 0 24 24" fill="none" xmlns="http://www.w3.org/2000/svg">
<path d="M18 3.24998H6.00004C5.49338 3.19125 4.98 3.24785 4.4983 3.41554C4.0166 3.58323 3.57906 3.85768 3.2184 4.21834C2.85774 4.579 2.5833 5.01654 2.4156 5.49824C2.24791 5.97994 2.19131 6.49332 2.25004 6.99998V17C2.19131 17.5066 2.24791 18.02 2.4156 18.5017C2.5833 18.9834 2.85774 19.421 3.2184 19.7816C3.57906 20.1423 4.0166 20.4167 4.4983 20.5844C4.98 20.7521 5.49338 20.8087 6.00004 20.75H18C18.5067 20.8087 19.0201 20.7521 19.5018 20.5844C19.9835 20.4167 20.421 20.1423 20.7817 19.7816C21.1423 19.421 21.4168 18.9834 21.5845 18.5017C21.7522 18.02 21.8088 17.5066 21.75 17V6.99998C21.8088 6.49332 21.7522 5.97994 21.5845 5.49824C21.4168 5.01654 21.1423 4.579 20.7817 4.21834C20.421 3.85768 19.9835 3.58323 19.5018 3.41554C19.0201 3.24785 18.5067 3.19125 18 3.24998ZM6.00004 4.74998H18C19.577 4.74998 20.25 5.42298 20.25 6.99998V14.25L15.71 9.70998C15.5212 9.52262 15.266 9.41749 15 9.41749C14.734 9.41749 14.4788 9.52262 14.29 9.70998L9.35004 14.65C9.25657 14.7416 9.13091 14.7929 9.00004 14.7929C8.86916 14.7929 8.7435 14.7416 8.65004 14.65L7.71004 13.71C7.52123 13.5226 7.26602 13.4175 7.00004 13.4175C6.73405 13.4175 6.47884 13.5226 6.29004 13.71L3.75004 16.25V6.99998C3.75004 5.42298 4.42304 4.74998 6.00004 4.74998ZM6.75004 8.99998C6.74925 8.83619 6.78081 8.67386 6.84291 8.52231C6.90501 8.37075 6.99643 8.23295 7.11191 8.11681C7.2274 8.00067 7.36469 7.90848 7.5159 7.84553C7.6671 7.78258 7.82925 7.7501 7.99304 7.74998H8.00004C8.24726 7.74998 8.48894 7.82329 8.6945 7.96064C8.90006 8.09799 9.06028 8.29321 9.15489 8.52162C9.2495 8.75003 9.27425 9.00136 9.22602 9.24384C9.17779 9.48631 9.05874 9.70904 8.88392 9.88386C8.7091 10.0587 8.48638 10.1777 8.2439 10.226C8.00142 10.2742 7.75009 10.2494 7.52168 10.1548C7.29327 10.0602 7.09805 9.9 6.9607 9.69444C6.82335 9.48888 6.75004 9.2472 6.75004 8.99998Z" fill="white"/>
</svg>
