<svg width="24" height="24" viewBox="0 0 24 24" fill="none" xmlns="http://www.w3.org/2000/svg">
<g clipPath="url(#clip0_14098_160195)">
<path d="M18.3996 12.3294C18.3996 11.9294 18.0937 11.6235 17.6937 11.6235C17.2937 11.6235 16.9878 11.9294 16.9878 12.3294C16.9878 15.0824 14.7526 17.3177 11.9996 17.3177C9.24667 17.3177 7.01137 15.0824 7.01137 12.3294C7.01137 11.9294 6.70549 11.6235 6.30549 11.6235C5.90549 11.6235 5.59961 11.9294 5.59961 12.3294C5.59961 15.6 8.04667 18.3529 11.2937 18.7059V20.5882H8.72902C8.32902 20.5882 8.02314 20.8941 8.02314 21.2941C8.02314 21.6941 8.32902 22 8.72902 22H15.2702C15.6702 22 15.9761 21.6941 15.9761 21.2941C15.9761 20.8941 15.6702 20.5882 15.2702 20.5882H12.7055V18.7059C15.9526 18.3529 18.3996 15.6 18.3996 12.3294Z" fill="white"/>
<path d="M11.9997 2C9.83502 2 8.07031 3.76471 8.07031 5.92941V12.3059C8.07031 14.4941 9.83502 16.2353 11.9997 16.2588C14.1644 16.2588 15.9291 14.4941 15.9291 12.3294V5.92941C15.9291 3.76471 14.1644 2 11.9997 2Z" fill="white"/>
</g>
<defs>
<clipPath id="clip0_14098_160195">
<rect width="20" height="20" fill="white" transform="translate(2 2)"/>
</clipPath>
</defs>
</svg>
