<svg width="24" height="24" viewBox="0 0 24 24" fill="none" xmlns="http://www.w3.org/2000/svg">
<path d="M15.5399 16.54C15.3433 16.5394 15.1511 16.4808 14.9876 16.3715C14.8241 16.2623 14.6964 16.1073 14.6205 15.9258C14.5446 15.7444 14.5239 15.5446 14.561 15.3515C14.5981 15.1583 14.6913 14.9804 14.8289 14.84C15.5789 14.0863 16 13.0663 16 12.003C16 10.9397 15.5789 9.91967 14.8289 9.16597C14.6475 8.9764 14.5479 8.72313 14.5516 8.46078C14.5552 8.19844 14.6618 7.94803 14.8484 7.76356C15.0349 7.57909 15.2865 7.47533 15.5489 7.47466C15.8113 7.47399 16.0634 7.57646 16.2509 7.75997C17.3712 8.88793 18 10.4132 18 12.003C18 13.5928 17.3712 15.118 16.2509 16.246C16.1577 16.3395 16.0469 16.4136 15.9248 16.4641C15.8028 16.5145 15.672 16.5403 15.5399 16.54ZM9.16292 16.251C9.35146 16.0645 9.45821 15.8108 9.45971 15.5456C9.46121 15.2805 9.35733 15.0256 9.17092 14.837C8.42091 14.0833 7.99987 13.0633 7.99987 12C7.99987 10.9367 8.42091 9.91667 9.17092 9.16297C9.26576 9.07015 9.34118 8.95938 9.39278 8.83712C9.44438 8.71486 9.47113 8.58355 9.47147 8.45085C9.47181 8.31814 9.44573 8.1867 9.39476 8.06417C9.34378 7.94165 9.26893 7.8305 9.17457 7.73719C9.0802 7.64389 8.96821 7.5703 8.84511 7.52071C8.72202 7.47113 8.59029 7.44654 8.4576 7.44838C8.32491 7.45023 8.19391 7.47846 8.07224 7.53144C7.95057 7.58442 7.84066 7.66109 7.74892 7.75697C6.6286 8.88493 5.99985 10.4102 5.99985 12C5.99985 13.5898 6.6286 15.115 7.74892 16.243C7.93538 16.4315 8.1891 16.5383 8.45426 16.5398C8.71943 16.5413 8.97433 16.4374 9.16292 16.251ZM19.4319 18.671C21.0847 16.8422 21.9998 14.465 21.9998 12C21.9998 9.53497 21.0847 7.15774 19.4319 5.32897C19.254 5.13231 19.0052 5.0144 18.7403 5.00118C18.4754 4.98796 18.2161 5.08051 18.0194 5.25847C17.8228 5.43643 17.7049 5.68523 17.6916 5.95012C17.6784 6.21502 17.771 6.47431 17.9489 6.67097C19.269 8.13199 19.9998 10.0309 19.9998 12C19.9998 13.969 19.269 15.868 17.9489 17.329C17.771 17.5256 17.6784 17.7849 17.6916 18.0498C17.7049 18.3147 17.8228 18.5635 18.0194 18.7415C18.2161 18.9194 18.4754 19.012 18.7403 18.9988C19.0052 18.9855 19.254 18.8676 19.4319 18.671ZM5.97992 18.741C6.1765 18.5631 6.29441 18.3144 6.30773 18.0497C6.32104 17.7849 6.22867 17.5257 6.05092 17.329C4.73088 15.868 4.00008 13.969 4.00008 12C4.00008 10.0309 4.73088 8.13199 6.05092 6.67097C6.13904 6.5736 6.20711 6.45982 6.25126 6.33614C6.2954 6.21245 6.31475 6.08128 6.30821 5.95012C6.30166 5.81896 6.26934 5.69037 6.2131 5.5717C6.15686 5.45302 6.07779 5.34659 5.98042 5.25847C5.88304 5.17035 5.76927 5.10228 5.64558 5.05813C5.5219 5.01399 5.39073 4.99464 5.25957 5.00118C4.99467 5.0144 4.74588 5.13231 4.56792 5.32897C2.91509 7.15774 2 9.53497 2 12C2 14.465 2.91509 16.8422 4.56792 18.671C4.74593 18.8674 4.99465 18.9851 5.25943 18.9983C5.5242 19.0114 5.78335 18.9188 5.97992 18.741ZM11.9999 10.5C11.7032 10.5 11.4132 10.5879 11.1666 10.7528C10.9199 10.9176 10.7276 11.1519 10.6141 11.4259C10.5006 11.7 10.4709 12.0016 10.5287 12.2926C10.5866 12.5836 10.7295 12.8509 10.9393 13.0606C11.149 13.2704 11.4163 13.4133 11.7073 13.4712C11.9983 13.529 12.2999 13.4993 12.5739 13.3858C12.848 13.2723 13.0823 13.08 13.2471 12.8333C13.4119 12.5867 13.4999 12.2966 13.4999 12C13.4999 11.6021 13.3419 11.2206 13.0606 10.9393C12.7793 10.658 12.3977 10.5 11.9999 10.5Z" fill="white"/>
</svg>
